<?xml version="1.0" encoding="iso-8859-1"?>
<!-- Generator: Adobe Illustrator 19.0.0, SVG Export Plug-In . SVG Version: 6.00 Build 0)  -->
<svg version="1.1" id="Layer_1" xmlns="http://www.w3.org/2000/svg" xmlns:xlink="http://www.w3.org/1999/xlink" x="0px" y="0px"
	 viewBox="0 0 297 297" style="enable-background:new 0 0 297 297;" xml:space="preserve">
<g>
	<g>
		<g>
			<g>
				<circle style="fill:#17AB93;" cx="148.5" cy="148.5" r="148.5"/>
			</g>
		</g>
	</g>
	<path style="fill:#107A66;" d="M172.796,36.586l-47.06,225.264l34.552,34.685c72.608-5.702,130.535-63.624,136.246-136.229
		L172.796,36.586z"/>
	<g>
		<path style="fill:#292C2D;" d="M107.25,119.625h82.5l-15.084-79.191c-0.817-4.29-5.059-7.434-10.029-7.434h-32.275
			c-4.97,0-9.212,3.144-10.029,7.434L107.25,119.625z"/>
	</g>
	<g>
		<path style="fill:#292C2D;" d="M189.75,177.375h-82.5l15.084,79.191c0.817,4.29,5.059,7.434,10.029,7.434h32.275
			c4.97,0,9.212-3.144,10.029-7.434L189.75,177.375z"/>
	</g>
	<g>
		<path style="fill:#484D4F;" d="M111.666,207h73.667C197.3,207,207,197.3,207,185.333v-73.667C207,99.7,197.3,90,185.333,90
			h-73.667C99.7,90,90,99.7,90,111.666v73.667C90,197.3,99.7,207,111.666,207z"/>
	</g>
	<g>
		<path style="fill:#D0D5D9;" d="M119.833,187.5h57.333c5.707,0,10.333-4.626,10.333-10.333v-57.333
			c0-5.707-4.626-10.334-10.333-10.334h-57.333c-5.707,0-10.334,4.626-10.334,10.334v57.333
			C109.5,182.874,114.126,187.5,119.833,187.5z"/>
	</g>
</g>
<g>
</g>
<g>
</g>
<g>
</g>
<g>
</g>
<g>
</g>
<g>
</g>
<g>
</g>
<g>
</g>
<g>
</g>
<g>
</g>
<g>
</g>
<g>
</g>
<g>
</g>
<g>
</g>
<g>
</g>
</svg>
