<?xml version="1.0" encoding="iso-8859-1"?>
<!-- Generator: Adobe Illustrator 19.0.0, SVG Export Plug-In . SVG Version: 6.00 Build 0)  -->
<svg version="1.1" id="Layer_1" xmlns="http://www.w3.org/2000/svg" xmlns:xlink="http://www.w3.org/1999/xlink" x="0px" y="0px"
	 viewBox="0 0 512 512" style="enable-background:new 0 0 512 512;" xml:space="preserve">
<circle style="fill:#FFEDB5;" cx="256" cy="256" r="256"/>
<g>
	<path style="fill:#FEE187;" d="M204.283,419.771l89.453,89.453c111.175-16.427,199.061-104.315,215.488-215.488L307.033,91.42
		L204.283,419.771z"/>
	<polygon style="fill:#FEE187;" points="176.014,335.975 216.35,377.247 215.776,326.106 	"/>
</g>
<path style="fill:#1C1C1C;" d="M219.51,426.667h72.98c11.266,0,20.399-9.133,20.399-20.399V105.732
	c0-11.266-9.133-20.399-20.399-20.399h-72.98c-11.266,0-20.399,9.133-20.399,20.399v300.535
	C199.111,417.533,208.244,426.667,219.51,426.667z"/>
<path style="fill:#020202;" d="M292.49,85.333h-37.638v341.333h37.638c11.266,0,20.399-9.133,20.399-20.399V105.732
	C312.889,94.467,303.756,85.333,292.49,85.333z"/>
<path style="fill:#3D3D3D;" d="M323.089,341.333H188.912c-10.078,0-18.246-8.168-18.246-18.244V188.912
	c0-10.078,8.168-18.246,18.246-18.246h134.177c10.076,0,18.244,8.168,18.244,18.246v134.177
	C341.333,333.165,333.165,341.333,323.089,341.333z"/>
<path style="fill:#303030;" d="M323.089,170.667h-68.237v170.667h68.237c10.076,0,18.244-8.168,18.244-18.244V188.912
	C341.333,178.835,333.165,170.667,323.089,170.667z"/>
<path style="fill:#666666;" d="M314.039,321.508H197.963c-4.125,0-7.47-3.344-7.47-7.47V197.963c0-4.125,3.344-7.47,7.47-7.47
	h116.076c4.125,0,7.47,3.344,7.47,7.47v116.076C321.508,318.164,318.164,321.508,314.039,321.508z"/>
<path style="fill:#565656;" d="M314.039,190.492h-59.187v131.017h59.187c4.125,0,7.47-3.344,7.47-7.47V197.963
	C321.508,193.836,318.164,190.492,314.039,190.492z"/>
<circle style="fill:#FFFFFF;" cx="256" cy="256" r="28.444"/>
<path style="fill:#DBDBDD;" d="M256,227.556c-0.388,0-0.765,0.043-1.148,0.059v56.773c0.384,0.016,0.76,0.059,1.148,0.059
	c15.71,0,28.444-12.734,28.444-28.444C284.444,240.29,271.71,227.556,256,227.556z"/>
<circle style="fill:#FF5419;" cx="221.522" cy="278.411" r="6.034"/>
<circle style="fill:#FFAD9E;" cx="243.933" cy="293.926" r="6.034"/>
<circle style="fill:#FF5419;" cx="250.828" cy="214.626" r="6.034"/>
<g>
	<circle style="fill:#FDE085;" cx="212.902" cy="249.966" r="9.481"/>
	<circle style="fill:#FDE085;" cx="274.963" cy="218.074" r="9.481"/>
</g>
<circle style="fill:#71E2EF;" cx="274.963" cy="293.926" r="9.481"/>
<g>
	<circle style="fill:#FFC91B;" cx="228.417" cy="219.798" r="9.481"/>
	<circle style="fill:#FFC91B;" cx="303.407" cy="265.481" r="11.205"/>
</g>
<g>
</g>
<g>
</g>
<g>
</g>
<g>
</g>
<g>
</g>
<g>
</g>
<g>
</g>
<g>
</g>
<g>
</g>
<g>
</g>
<g>
</g>
<g>
</g>
<g>
</g>
<g>
</g>
<g>
</g>
</svg>
